# xmcd
#
# Track frame offsets:
#	150
#	5781
#	24012
#	57630
#	74506
#	97248
#	117557
#	135452
#	154734
#	181934
#	197226
#	227191
#	240427
#	273088
#	303458
#	327041
#
# Disc length: 4549 seconds
#
# Revision: 1
# Processed by: cddbd v1.5.2PL0 Copyright (c) Steve Scherf et al.
# Submitted via: audiograbber 1.83.01
#
DISCID=df11c310
DTITLE=Various Artist - Nina Revisited... A Tribute To Nina Simone
DYEAR=2015
DGENRE=Soul
TTITLE0=Lisa Simone - My Mama Could Sing (intro)
TTITLE1=Lauryn Hill - Feeling Good
TTITLE2=Lauryn Hill - I've Got Life (version)
TTITLE3=Lauryn Hill - Ne Me Quitte Pas
TTITLE4=Jazmine Sullivan - Baltimore
TTITLE5=Grace - Love Me Or Leave Me
TTITLE6=Usher - My Baby Just Cares For Me
TTITLE7=Mary J. Blige - Don't Let Me Be Misunderstood
TTITLE8=Gregory Porter - Sinnerman
TTITLE9=Common and Lalah Hathaway - We Are Young Gifted and Black
TTITLE10=Alice Smith - I Put A Spell On You
TTITLE11=Lisa Simone - I Want A Little Sugar In My Bowl
TTITLE12=Lauryn Hill - Black Is The Color Of My True Love's Hair
TTITLE13=Lauryn Hill - Wild Is The Wind
TTITLE14=Lauryn Hill - African Mailman (instrumental)
TTITLE15=Nina Simone - I Wish I Knew How It Would Feel To Be Free
EXTD=
EXTT0=
EXTT1=
EXTT2=
EXTT3=
EXTT4=
EXTT5=
EXTT6=
EXTT7=
EXTT8=
EXTT9=
EXTT10=
EXTT11=
EXTT12=
EXTT13=
EXTT14=
EXTT15=
PLAYORDER=
